<svg width="26" height="28" viewBox="0 0 26 28" fill="none" xmlns="http://www.w3.org/2000/svg">
<path d="M6.91881 12.9862L2.16288 4.47565C1.61602 3.49706 1.34259 3.00777 1.38867 2.60716C1.42887 2.25764 1.61451 1.94125 1.9 1.73565C2.22723 1.5 2.78774 1.5 3.90876 1.5H6.70229C7.11891 1.5 7.32722 1.5 7.51407 1.56017C7.6794 1.61341 7.83183 1.70052 7.96162 1.81595C8.1083 1.9464 8.21403 2.12588 8.4255 2.48484L13 10.25L17.5745 2.48484C17.786 2.12588 17.8917 1.9464 18.0384 1.81595C18.1682 1.70052 18.3206 1.61341 18.486 1.56017C18.6728 1.5 18.8811 1.5 19.2977 1.5H22.0913C23.2123 1.5 23.7728 1.5 24.1 1.73565C24.3855 1.94125 24.5711 2.25764 24.6114 2.60716C24.6574 3.00777 24.384 3.49706 23.8371 4.47565L19.0812 12.9862M11.125 16.5L13 15.25V21.5M11.4375 21.5H14.5625M18.7453 12.6298C21.9183 15.8028 21.9183 20.9472 18.7453 24.1202C15.5723 27.2933 10.4278 27.2933 7.25476 24.1202C4.08176 20.9472 4.08176 15.8028 7.25476 12.6298C10.4278 9.45675 15.5722 9.45675 18.7453 12.6298Z" stroke="#FFE600" stroke-width="2" stroke-linecap="round" stroke-linejoin="round"/>
</svg>
