<svg width="22" height="28" viewBox="0 0 22 28" fill="none" xmlns="http://www.w3.org/2000/svg">
<path d="M7.09531 15.3691L1.87653 8.84566C1.55166 8.43957 1.38922 8.23653 1.27371 8.01043C1.17123 7.80983 1.09633 7.59631 1.05104 7.37565C1 7.12694 1 6.86692 1 6.34688V5.5C1 4.09987 1 3.3998 1.27248 2.86502C1.51217 2.39462 1.89462 2.01217 2.36502 1.77248C2.8998 1.5 3.59987 1.5 5 1.5H17C18.4001 1.5 19.1002 1.5 19.635 1.77248C20.1054 2.01217 20.4878 2.39462 20.7275 2.86502C21 3.3998 21 4.09987 21 5.5V6.34688C21 6.86692 21 7.12694 20.949 7.37565C20.9037 7.59631 20.8288 7.80983 20.7263 8.01043C20.6108 8.23653 20.4483 8.43957 20.1235 8.84566L14.9047 15.3691M2.25007 2.74999L11.0001 14L19.7499 2.74999M15.4194 15.8306C17.8602 18.2714 17.8602 22.2286 15.4194 24.6694C12.9787 27.1102 9.02136 27.1102 6.58058 24.6694C4.13981 22.2287 4.13981 18.2714 6.58058 15.8306C9.02135 13.3898 12.9786 13.3898 15.4194 15.8306Z" stroke="#696F8C" stroke-width="2" stroke-linecap="round" stroke-linejoin="round"/>
</svg>
