<svg width="22" height="28" viewBox="0 0 22 28" fill="none" xmlns="http://www.w3.org/2000/svg">
<path d="M5.83582 18.3249L4.75 26.5L10.4855 23.0587C10.6726 22.9465 10.7661 22.8903 10.8659 22.8684C10.9543 22.849 11.0457 22.849 11.1341 22.8684C11.2339 22.8903 11.3274 22.9465 11.5145 23.0587L17.25 26.5L16.1649 18.3214M16.5324 4.3111C16.7254 4.778 17.096 5.14912 17.5625 5.34288L19.1987 6.0206C19.6656 6.21401 20.0365 6.58499 20.2299 7.05193C20.4234 7.51887 20.4234 8.04351 20.2299 8.51045L19.5527 10.1454C19.3592 10.6126 19.359 11.1378 19.5533 11.6047L20.2294 13.2392C20.3253 13.4705 20.3746 13.7183 20.3747 13.9687C20.3747 14.2191 20.3254 14.467 20.2296 14.6983C20.1338 14.9296 19.9934 15.1397 19.8163 15.3167C19.6393 15.4937 19.4291 15.6341 19.1978 15.7298L17.5628 16.4071C17.0959 16.6001 16.7248 16.9707 16.5311 17.4373L15.8534 19.0735C15.66 19.5404 15.289 19.9114 14.8221 20.1048C14.3552 20.2982 13.8306 20.2982 13.3636 20.1048L11.7287 19.4275C11.2618 19.2346 10.7373 19.235 10.2707 19.4286L8.63459 20.1054C8.16793 20.2984 7.64376 20.2982 7.17722 20.1049C6.71068 19.9117 6.33992 19.5411 6.14639 19.0747L5.46849 17.4381C5.27544 16.9712 4.90489 16.6 4.43829 16.4063L2.80219 15.7285C2.33547 15.5352 1.96462 15.1645 1.77114 14.6978C1.57766 14.2311 1.5774 13.7067 1.77041 13.2399L2.44762 11.6049C2.64055 11.1379 2.64016 10.6135 2.44653 10.1468L1.77029 8.50949C1.67441 8.27822 1.62504 8.03032 1.625 7.77997C1.62496 7.52961 1.67425 7.2817 1.77005 7.05041C1.86586 6.81911 2.00629 6.60895 2.18334 6.43196C2.36039 6.25496 2.57058 6.11458 2.8019 6.01885L4.43684 5.34161C4.90332 5.14872 5.2742 4.77863 5.4681 4.31255L6.1458 2.67638C6.3392 2.20945 6.71017 1.83847 7.17708 1.64506C7.644 1.45165 8.16863 1.45165 8.63555 1.64506L10.2705 2.3223C10.7374 2.51523 11.2618 2.51484 11.7285 2.3212L13.3653 1.64611C13.8321 1.45281 14.3567 1.45285 14.8235 1.64622C15.2903 1.83959 15.6612 2.21046 15.8547 2.67728L16.5326 4.31393L16.5324 4.3111Z" stroke="#8F4F34" stroke-width="2" stroke-linecap="round" stroke-linejoin="round"/>
</svg>
