<svg width="343" height="122" viewBox="0 0 343 122" fill="none" xmlns="http://www.w3.org/2000/svg">
<g clip-path="url(#clip0_1038_12413)">
<rect width="343" height="122" rx="12" fill="#066135"/>
<path d="M443.379 173.801C442.955 227.265 399.27 270.261 345.807 269.837C317.599 269.613 280.01 263.151 249.843 249.828C219.053 236.23 199.712 217.337 199.898 193.911C199.988 182.512 206.079 170.312 217.761 157.933C229.359 145.643 245.673 134.048 264.159 124.037C301.354 103.894 345.089 91.338 372.289 91.5538C399.874 91.7727 417.008 99.468 427.509 112.197C438.294 125.269 443.604 145.434 443.379 173.801Z" stroke="url(#paint0_linear_1038_12413)" stroke-width="18.1513"/>
<path d="M88.9161 -85.2102C117.441 -39.9902 103.907 19.7917 58.6867 48.3164C34.8281 63.3664 -0.294953 78.234 -32.8789 83.3195C-66.1349 88.5099 -92.6175 83.059 -105.116 63.245C-111.198 53.604 -112.663 40.0471 -109.52 23.3186C-106.399 6.71126 -98.934 -11.8595 -88.7858 -30.2708C-68.3673 -67.315 -38.3462 -101.507 -15.3399 -116.019C7.99177 -130.737 26.5676 -133.517 42.2815 -128.479C58.4187 -123.304 73.7809 -109.204 88.9161 -85.2102Z" stroke="url(#paint1_linear_1038_12413)" stroke-width="18.1513"/>
<g opacity="0.16">
<path d="M-17.0226 177.028L84.8501 90.0713C90.4425 85.2977 97.1464 82.0085 104.344 80.5067L171.283 66.5395C183.248 64.0428 193.627 56.6608 199.911 46.1768L222.754 8.06672C228.013 -0.706879 236.176 -7.3637 245.828 -10.7497L316.717 -35.6175L336.717 -41.9837" stroke="url(#paint2_linear_1038_12413)" stroke-width="1.09524"/>
<path d="M-13.4254 183.995L88.4473 97.0381C94.0397 92.2645 100.744 88.9753 107.941 87.4735L174.88 73.5063C186.846 71.0096 197.224 63.6276 203.508 53.1436L226.351 15.0335C231.61 6.25992 239.773 -0.396905 249.425 -3.78294L320.314 -28.6507L340.314 -35.0169" stroke="url(#paint3_linear_1038_12413)" stroke-width="1.09524"/>
<path d="M-9.82821 190.961L92.0445 104.005C97.6369 99.2313 104.341 95.9421 111.538 94.4403L178.477 80.4731C190.443 77.9764 200.821 70.5944 207.105 60.1104L229.948 22.0003C235.207 13.2267 243.37 6.56989 253.023 3.18386L323.911 -21.6839L343.911 -28.0501" stroke="url(#paint4_linear_1038_12413)" stroke-width="1.09524"/>
<path d="M-6.23154 197.928L95.6411 110.972C101.234 106.198 107.937 102.909 115.135 101.407L182.074 87.4399C194.039 84.9432 204.418 77.5612 210.702 67.0772L233.545 28.9671C238.804 20.1935 246.967 13.5367 256.619 10.1507L327.508 -14.7171L347.508 -21.0833" stroke="url(#paint5_linear_1038_12413)" stroke-width="1.09524"/>
<path d="M-2.63437 204.895L99.2383 117.938C104.831 113.165 111.535 109.876 118.732 108.374L185.671 94.4067C197.637 91.91 208.015 84.528 214.299 74.044L237.142 35.9339C242.401 27.1603 250.564 20.5035 260.216 17.1174L331.105 -7.75033L351.105 -14.1165" stroke="url(#paint6_linear_1038_12413)" stroke-width="1.09524"/>
<path d="M0.962801 211.863L102.835 124.906C108.428 120.133 115.132 116.843 122.329 115.342L189.268 101.374C201.234 98.8778 211.612 91.4958 217.896 81.0117L240.739 42.9017C245.998 34.1281 254.161 27.4713 263.814 24.0852L334.702 -0.78256L354.702 -7.14873" stroke="url(#paint7_linear_1038_12413)" stroke-width="1.09524"/>
<path d="M4.55997 218.83L106.433 131.873C112.025 127.1 118.729 123.81 125.927 122.308L192.865 108.341C204.831 105.845 215.209 98.4626 221.493 87.9785L244.336 49.8685C249.595 41.0949 257.758 34.4381 267.411 31.052L338.299 6.18424L358.299 -0.18193" stroke="url(#paint8_linear_1038_12413)" stroke-width="1.09524"/>
<path d="M8.15714 225.796L110.03 138.84C115.622 134.066 122.326 130.777 129.524 129.275L196.463 115.308C208.428 112.811 218.806 105.429 225.091 94.9453L247.934 56.8353C253.192 48.0617 261.356 41.4049 271.008 38.0188L341.896 13.151L361.896 6.78487" stroke="url(#paint9_linear_1038_12413)" stroke-width="1.09524"/>
<path d="M32.6908 69.9182L33.8463 69.5416L34.3695 71.147C35.0608 71.0127 35.648 70.9482 36.1311 70.9534C36.62 70.9566 37.084 71.0331 37.5231 71.1827C37.9407 71.3263 38.2817 71.5242 38.546 71.7763C38.8143 72.0206 39.0021 72.3074 39.1094 72.6368C39.2186 72.9719 39.1989 73.2906 39.0502 73.5928C38.8996 73.8891 38.6508 74.0938 38.3038 74.2068C38.051 74.2892 37.8083 74.313 37.5758 74.2782C37.3491 74.2415 37.1492 74.1571 36.976 74.0249C36.8068 73.8849 36.6877 73.709 36.6187 73.4973C36.4577 73.0034 36.5289 72.5931 36.8323 72.2665C36.5379 72.1218 36.204 72.0355 35.8307 72.0075C35.4612 71.9718 35.0767 71.9996 34.6771 72.0908L36.1002 76.457L36.2908 76.473C37.2602 76.5733 38.0731 76.6922 38.7293 76.8296C39.3915 76.965 39.936 77.1388 40.3629 77.351C40.7879 77.5572 41.1255 77.8147 41.3758 78.1235C41.626 78.4322 41.823 78.8071 41.9668 79.2481C42.1718 79.8773 42.199 80.4995 42.0482 81.1146C41.8955 81.7238 41.5749 82.2869 41.0863 82.8039C40.7966 83.1325 40.4632 83.4168 40.0861 83.6568C39.7089 83.8968 39.2399 84.1343 38.679 84.3692L39.2051 85.9833L38.0496 86.3599L37.5234 84.7458C36.7261 84.9341 36.0253 85.0291 35.4209 85.031C34.8205 85.025 34.25 84.9312 33.7095 84.7496C33.2607 84.5902 32.8846 84.3744 32.5813 84.1025C32.278 83.8306 32.0708 83.5241 31.9596 83.183C31.8331 82.7949 31.8502 82.4381 32.0108 82.1125C32.1754 81.7791 32.4517 81.5492 32.8398 81.4227C33.1044 81.3365 33.3578 81.3157 33.6001 81.3603C33.8423 81.405 34.0548 81.5081 34.2376 81.6697C34.4243 81.8235 34.5579 82.0239 34.6384 82.2709C34.8282 82.853 34.685 83.3518 34.2089 83.7672C34.3882 83.8584 34.6372 83.9236 34.9557 83.9629C35.2801 84.0003 35.64 84.0066 36.0352 83.9818C36.4364 83.9552 36.8309 83.8982 37.2187 83.8108L35.6921 79.127L34.6573 79.0057C33.7701 78.898 33.0328 78.7415 32.4454 78.5361C31.8562 78.3249 31.3876 78.045 31.0399 77.6965C30.6902 77.3421 30.4291 76.9003 30.2566 76.371C30.0764 75.8183 30.0449 75.2626 30.1621 74.704C30.2832 74.1376 30.5469 73.6093 30.9531 73.1191C31.235 72.7866 31.5479 72.4992 31.8918 72.257C32.2357 72.0148 32.6764 71.7703 33.214 71.5236L32.6908 69.9182ZM33.5274 72.485C32.3145 73.095 31.8548 73.8498 32.148 74.7495C32.3013 75.22 32.5932 75.5867 33.0237 75.8497C33.4582 76.1049 34.0477 76.2771 34.7923 76.3661L33.5274 72.485ZM38.3742 83.4342C39.0295 83.1295 39.4649 82.8087 39.6803 82.4718C39.9017 82.133 39.9395 81.7401 39.7938 81.2932C39.6635 80.8933 39.4887 80.5665 39.2693 80.3127C39.054 80.0511 38.764 79.8399 38.3993 79.679C38.0386 79.5104 37.577 79.3714 37.0144 79.262L38.3742 83.4342Z" fill="white"/>
<path d="M324.936 35.2122L325.956 35.7461L325.214 37.1634C325.763 37.5431 326.195 37.8983 326.511 38.2292C326.833 38.5627 327.088 38.9278 327.277 39.3244C327.456 39.7025 327.548 40.0646 327.552 40.4106C327.564 40.7542 327.494 41.0713 327.342 41.362C327.187 41.6579 326.958 41.8555 326.655 41.9547C326.354 42.0488 326.051 42.0156 325.744 41.8553C325.521 41.7385 325.344 41.5898 325.214 41.4091C325.089 41.2312 325.014 41.0398 324.989 40.8349C324.972 40.6276 325.012 40.4304 325.11 40.2436C325.338 39.8075 325.663 39.5842 326.085 39.5736C325.989 39.2783 325.826 38.9949 325.598 38.7233C325.378 38.4493 325.104 38.2071 324.778 37.9966L322.761 41.8512L322.876 41.9909C323.45 42.7144 323.907 43.344 324.249 43.8798C324.595 44.4182 324.838 44.9023 324.976 45.3321C325.118 45.7566 325.167 46.1559 325.123 46.5299C325.08 46.9039 324.956 47.2855 324.752 47.6749C324.462 48.2304 324.058 48.6606 323.541 48.9655C323.027 49.2653 322.433 49.4207 321.759 49.4318C321.345 49.453 320.932 49.4152 320.519 49.3184C320.107 49.2217 319.636 49.061 319.105 48.8362L318.359 50.2613L317.339 49.7274L318.085 48.3024C317.43 47.8866 316.901 47.4745 316.5 47.0661C316.107 46.6552 315.793 46.2065 315.558 45.7199C315.369 45.3102 315.266 44.9125 315.25 44.527C315.233 44.1414 315.304 43.7981 315.461 43.497C315.641 43.1543 315.894 42.9297 316.221 42.8231C316.556 42.7139 316.894 42.749 317.237 42.9283C317.471 43.0506 317.652 43.2086 317.783 43.4023C317.913 43.5961 317.983 43.8084 317.995 44.0392C318.014 44.2676 317.967 44.4908 317.853 44.7088C317.584 45.2228 317.151 45.4559 316.554 45.4081C316.611 45.59 316.732 45.8019 316.916 46.0438C317.105 46.2885 317.339 46.5365 317.618 46.788C317.901 47.0423 318.201 47.2719 318.517 47.4769L320.681 43.342L320.078 42.5603C319.564 41.8877 319.182 41.2844 318.932 40.7504C318.686 40.2111 318.565 39.7083 318.571 39.2419C318.58 38.7703 318.706 38.3009 318.951 37.8337C319.206 37.3457 319.562 36.9566 320.018 36.6662C320.482 36.3734 321.015 36.2024 321.616 36.1533C322.028 36.1242 322.43 36.1461 322.822 36.2188C323.214 36.2916 323.671 36.4285 324.194 36.6295L324.936 35.2122ZM323.75 37.4783C322.534 37.06 321.718 37.248 321.302 38.0423C321.085 38.4576 321.029 38.8982 321.136 39.3641C321.251 39.8275 321.524 40.341 321.957 40.9046L323.75 37.4783ZM319.537 48.0108C320.177 48.2533 320.683 48.336 321.054 48.259C321.43 48.1847 321.721 47.9503 321.928 47.5558C322.113 47.2028 322.218 46.8679 322.245 46.5513C322.28 46.2322 322.231 45.8958 322.099 45.5422C321.974 45.1861 321.763 44.7812 321.465 44.3275L319.537 48.0108Z" fill="white"/>
</g>
<path d="M120 92.02L117.22 91.36C116.3 91.1467 115.653 90.8 115.28 90.32C114.907 89.8267 114.72 89.1267 114.72 88.22C114.72 86.86 115.093 85.86 115.84 85.22C116.587 84.58 117.747 84.26 119.32 84.26C119.973 84.26 120.553 84.2933 121.06 84.36C121.58 84.4133 122.06 84.5 122.5 84.62V86.78C121.74 86.6333 121.133 86.54 120.68 86.5C120.227 86.4467 119.76 86.42 119.28 86.42C118.48 86.42 117.913 86.5467 117.58 86.8C117.247 87.04 117.08 87.46 117.08 88.06C117.08 88.4067 117.147 88.6733 117.28 88.86C117.427 89.0333 117.667 89.16 118 89.24L120.7 89.88C121.327 90.0267 121.793 90.18 122.1 90.34C122.407 90.4867 122.66 90.6733 122.86 90.9C123.06 91.1533 123.207 91.4667 123.3 91.84C123.407 92.2133 123.46 92.6733 123.46 93.22C123.46 94.6333 123.087 95.6467 122.34 96.26C121.593 96.8733 120.433 97.18 118.86 97.18C118.047 97.18 117.26 97.1267 116.5 97.02C115.753 96.9133 115.167 96.78 114.74 96.62V94.36C115.313 94.5333 115.96 94.6733 116.68 94.78C117.413 94.8733 118.14 94.92 118.86 94.92C119.647 94.92 120.193 94.8133 120.5 94.6C120.82 94.3733 120.98 93.94 120.98 93.3C120.98 92.9 120.913 92.6133 120.78 92.44C120.66 92.2533 120.4 92.1133 120 92.02ZM127.286 97L123.906 84.46H126.506L128.206 91.52C128.246 91.7067 128.292 91.9333 128.346 92.2C128.399 92.4667 128.532 93.2333 128.746 94.5C128.959 93.26 129.092 92.5 129.146 92.22C129.199 91.94 129.246 91.7133 129.286 91.54L131.066 84.46H133.586L135.386 91.52C135.439 91.7067 135.492 91.94 135.546 92.22C135.599 92.4867 135.732 93.24 135.946 94.48C136.092 93.6533 136.206 93 136.286 92.52C136.379 92.0267 136.446 91.7 136.486 91.54L138.146 84.46H140.666L137.286 97H134.546L133.126 91.74C132.992 91.1933 132.859 90.6067 132.726 89.98C132.592 89.34 132.446 88.5867 132.286 87.72C132.166 88.3733 132.032 89.04 131.886 89.72C131.752 90.3867 131.606 91.06 131.446 91.74L130.046 97H127.286ZM142.654 97H140.134L144.934 84.46H147.414L152.134 97H149.614L148.714 94.44H143.534L142.654 97ZM146.114 86.76C145.968 87.2667 145.801 87.8 145.614 88.36C145.441 88.92 145.274 89.44 145.114 89.92L144.234 92.46H148.014L147.134 89.92C146.988 89.4933 146.821 89 146.634 88.44C146.448 87.8667 146.274 87.3067 146.114 86.76ZM155.823 93.2V97H153.423V84.46H157.843C159.696 84.46 161.016 84.7867 161.803 85.44C162.603 86.0933 163.003 87.18 163.003 88.7C163.003 90.2333 162.583 91.3667 161.743 92.1C160.916 92.8333 159.636 93.2 157.903 93.2H155.823ZM160.563 88.7C160.563 87.94 160.356 87.4067 159.943 87.1C159.543 86.78 158.843 86.62 157.843 86.62H155.823V91.1H157.843C158.843 91.1 159.543 90.92 159.943 90.56C160.356 90.1867 160.563 89.5667 160.563 88.7ZM176.311 84.46V86.62H172.511V97H170.111V86.62H166.331V84.46H176.311ZM188.408 90.7C188.408 92.98 187.954 94.6333 187.048 95.66C186.154 96.6733 184.694 97.18 182.668 97.18C180.508 97.18 179.008 96.7067 178.168 95.76C177.328 94.8 176.908 93.1133 176.908 90.7C176.908 88.4333 177.361 86.7933 178.268 85.78C179.174 84.7667 180.641 84.26 182.668 84.26C184.814 84.26 186.308 84.74 187.148 85.7C187.988 86.6467 188.408 88.3133 188.408 90.7ZM179.828 93.86C180.041 94.2467 180.354 94.52 180.768 94.68C181.181 94.84 181.814 94.92 182.668 94.92C183.988 94.92 184.868 94.6267 185.308 94.04C185.748 93.44 185.968 92.3267 185.968 90.7C185.968 89.9133 185.928 89.2667 185.848 88.76C185.781 88.2533 185.661 87.84 185.488 87.52C185.274 87.12 184.961 86.84 184.548 86.68C184.134 86.5067 183.508 86.42 182.668 86.42C181.334 86.42 180.448 86.72 180.008 87.32C179.568 87.92 179.348 89.0467 179.348 90.7C179.348 91.4867 179.388 92.1333 179.468 92.64C179.548 93.1467 179.668 93.5533 179.828 93.86ZM195.528 97L192.148 84.46H194.748L196.448 91.52C196.488 91.7067 196.534 91.9333 196.588 92.2C196.641 92.4667 196.774 93.2333 196.988 94.5C197.201 93.26 197.334 92.5 197.388 92.22C197.441 91.94 197.488 91.7133 197.528 91.54L199.308 84.46H201.828L203.628 91.52C203.681 91.7067 203.734 91.94 203.788 92.22C203.841 92.4867 203.974 93.24 204.188 94.48C204.334 93.6533 204.448 93 204.528 92.52C204.621 92.0267 204.688 91.7 204.728 91.54L206.388 84.46H208.908L205.528 97H202.788L201.368 91.74C201.234 91.1933 201.101 90.6067 200.968 89.98C200.834 89.34 200.688 88.5867 200.528 87.72C200.408 88.3733 200.274 89.04 200.128 89.72C199.994 90.3867 199.848 91.06 199.688 91.74L198.288 97H195.528ZM212.639 84.46V97H210.239V84.46H212.639ZM225.584 84.46V97H223.244L217.304 88.5V97H215.044V84.46H217.384L223.344 93.16V84.46H225.584Z" fill="white"/>
<path d="M47.0489 36.891L48.0725 36.5238L48.5826 37.9459C49.1973 37.8076 49.7208 37.7345 50.153 37.7264C50.5904 37.7165 51.0073 37.7727 51.404 37.895C51.7812 38.0125 52.0913 38.1805 52.3344 38.399C52.5807 38.6105 52.7562 38.862 52.8609 39.1537C52.9674 39.4506 52.9581 39.7362 52.833 40.0103C52.7061 40.2793 52.489 40.4689 52.1816 40.5791C51.9577 40.6595 51.7412 40.6871 51.5324 40.6621C51.3287 40.6352 51.1477 40.5649 50.9893 40.4512C50.8343 40.3305 50.7232 40.1763 50.6559 39.9888C50.4989 39.5513 50.5518 39.1825 50.8146 38.8825C50.5475 38.7607 50.2467 38.6923 49.912 38.6771C49.5806 38.6549 49.2375 38.6898 48.8825 38.7819L50.2699 42.6494L50.4408 42.6587C51.3104 42.723 52.0405 42.8079 52.6311 42.9136C53.2268 43.0173 53.7184 43.1585 54.1058 43.337C54.4913 43.5103 54.8 43.7317 55.0319 44.0013C55.2638 44.2708 55.4499 44.6009 55.59 44.9916C55.7899 45.5489 55.8306 46.1046 55.7118 46.6587C55.5913 47.2076 55.3193 47.7196 54.896 48.1948C54.6455 48.4963 54.3548 48.7594 54.0238 48.9839C53.6928 49.2085 53.2796 49.4331 52.7841 49.6579L53.297 51.0878L52.2734 51.4549L51.7605 50.0251C51.0524 50.2145 50.4281 50.3179 49.8876 50.3354C49.3505 50.3458 48.8378 50.277 48.3496 50.1287C47.944 49.9979 47.602 49.8149 47.3236 49.5796C47.0452 49.3444 46.8518 49.0757 46.7435 48.7736C46.6201 48.4298 46.626 48.1102 46.7611 47.8148C46.8995 47.5124 47.1406 47.2995 47.4844 47.1762C47.7188 47.0921 47.9449 47.0668 48.1627 47.1004C48.3805 47.134 48.5733 47.2206 48.741 47.3603C48.9121 47.493 49.0368 47.6687 49.1153 47.8875C49.3003 48.4031 49.1853 48.853 48.7704 49.237C48.9332 49.3138 49.1576 49.3656 49.4435 49.3924C49.7346 49.4173 50.0566 49.4135 50.4095 49.381C50.7675 49.3466 51.1188 49.2852 51.4634 49.1969L49.9751 45.0481L49.0464 44.9667C48.2501 44.8938 47.5866 44.7732 47.0559 44.6049C46.5233 44.4315 46.0969 44.1934 45.7768 43.8909C45.4547 43.5831 45.2096 43.1948 45.0414 42.726C44.8658 42.2364 44.823 41.7403 44.9131 41.2376C45.0066 40.7279 45.2285 40.2485 45.5789 39.7994C45.8223 39.4946 46.0946 39.2293 46.3958 39.0037C46.697 38.7781 47.0848 38.5478 47.559 38.313L47.0489 36.891ZM47.8646 39.1647C46.7959 39.742 46.4045 40.4292 46.6904 41.2262C46.8399 41.6429 47.1106 41.9632 47.5025 42.1871C47.8978 42.4039 48.4295 42.5424 49.0978 42.6025L47.8646 39.1647ZM52.487 48.8297C53.065 48.5401 53.446 48.2417 53.6298 47.9347C53.8188 47.6259 53.8424 47.2735 53.7003 46.8776C53.5733 46.5234 53.4083 46.2357 53.2055 46.0145C53.0061 45.7862 52.7411 45.605 52.4108 45.4707C52.0837 45.3293 51.6672 45.2171 51.1612 45.1341L52.487 48.8297Z" fill="white"/>
<path d="M288.397 50.3619L289.322 50.1074L289.675 51.3927C290.225 51.3122 290.691 51.283 291.072 51.3048C291.457 51.3254 291.82 51.4027 292.161 51.5369C292.485 51.6655 292.747 51.8341 292.946 52.0426C293.148 52.2452 293.286 52.4783 293.358 52.7419C293.432 53.0103 293.405 53.2609 293.277 53.4937C293.147 53.7218 292.943 53.8741 292.665 53.9505C292.463 54.0062 292.271 54.016 292.089 53.98C291.911 53.9427 291.757 53.8688 291.625 53.7581C291.497 53.6415 291.409 53.4984 291.362 53.3289C291.254 52.9335 291.325 52.6126 291.576 52.3662C291.349 52.2412 291.089 52.1608 290.796 52.1251C290.506 52.0833 290.202 52.0911 289.883 52.1483L290.845 55.6439L290.994 55.6635C291.755 55.7783 292.392 55.902 292.904 56.0345C293.422 56.1657 293.845 56.3228 294.173 56.5058C294.501 56.684 294.758 56.8995 294.944 57.1522C295.13 57.4049 295.271 57.7078 295.368 58.0609C295.507 58.5646 295.506 59.0563 295.364 59.5358C295.221 60.0106 294.948 60.4429 294.543 60.8326C294.303 61.0811 294.029 61.2931 293.723 61.4685C293.417 61.6439 293.038 61.8139 292.587 61.9784L292.943 63.2708L292.018 63.5253L291.662 62.2329C291.026 62.3521 290.47 62.4013 289.994 62.3805C289.52 62.3537 289.074 62.2587 288.654 62.0957C288.306 61.9534 288.018 61.7694 287.788 61.5438C287.559 61.3182 287.407 61.0689 287.332 60.7958C287.246 60.4851 287.273 60.2043 287.412 59.9535C287.554 59.6966 287.78 59.5255 288.091 59.44C288.303 59.3817 288.503 59.3747 288.693 59.4188C288.882 59.4629 289.046 59.552 289.184 59.6862C289.326 59.8144 289.424 59.9773 289.478 60.1751C289.606 60.6411 289.475 61.0292 289.084 61.3393C289.222 61.4178 289.416 61.4784 289.666 61.5211C289.92 61.5625 290.204 61.5807 290.517 61.5757C290.834 61.5695 291.147 61.539 291.456 61.4844L290.425 57.7345L289.613 57.6008C288.917 57.4832 288.342 57.3327 287.886 57.1491C287.429 56.9608 287.07 56.7229 286.808 56.4352C286.546 56.1429 286.356 55.7848 286.24 55.3611C286.118 54.9186 286.113 54.4792 286.226 54.043C286.343 53.6008 286.57 53.1939 286.908 52.8223C287.143 52.5704 287.4 52.3552 287.68 52.1769C287.961 51.9986 288.317 51.822 288.75 51.6472L288.397 50.3619ZM288.962 52.4169C287.983 52.8533 287.593 53.4317 287.791 54.152C287.894 54.5286 288.111 54.8286 288.441 55.0518C288.774 55.2691 289.233 55.4265 289.817 55.5241L288.962 52.4169ZM292.381 61.2299C292.909 61.0137 293.264 60.7768 293.447 60.519C293.634 60.2599 293.678 59.9515 293.58 59.5937C293.492 59.2735 293.366 59.0094 293.202 58.8012C293.042 58.587 292.821 58.4097 292.539 58.2695C292.261 58.1232 291.902 57.9966 291.462 57.8896L292.381 61.2299Z" fill="white"/>
<path d="M301.451 7.9557L302.742 7.58642L303.256 9.38073C304.025 9.26039 304.676 9.21284 305.209 9.23809C305.749 9.26146 306.258 9.36465 306.737 9.54766C307.193 9.72316 307.561 9.95549 307.843 10.2446C308.13 10.5253 308.325 10.8497 308.431 11.2178C308.538 11.5924 308.503 11.9436 308.327 12.2714C308.148 12.5925 307.865 12.8085 307.477 12.9194C307.195 13.0002 306.926 13.0167 306.67 12.9689C306.422 12.9192 306.204 12.8178 306.018 12.6648C305.837 12.5033 305.712 12.3043 305.645 12.0676C305.487 11.5156 305.582 11.0653 305.93 10.7169C305.611 10.5451 305.246 10.4362 304.835 10.3903C304.428 10.3359 304.002 10.351 303.557 10.4356L304.952 15.3157L305.162 15.3411C306.229 15.4911 307.122 15.6552 307.841 15.8335C308.567 16.0099 309.162 16.2239 309.625 16.4754C310.086 16.7204 310.448 17.0185 310.712 17.3696C310.976 17.7207 311.179 18.1428 311.319 18.6357C311.521 19.339 311.525 20.0272 311.334 20.7005C311.141 21.3673 310.764 21.9763 310.203 22.5276C309.87 22.8788 309.49 23.1794 309.064 23.4292C308.638 23.6791 308.11 23.9224 307.481 24.1591L307.997 25.9633L306.705 26.3326L306.19 24.5284C305.301 24.7042 304.523 24.7808 303.856 24.7584C303.193 24.7276 302.566 24.6009 301.977 24.3785C301.487 24.1842 301.081 23.9308 300.757 23.6182C300.433 23.3055 300.216 22.9586 300.107 22.5774C299.983 22.1436 300.017 21.7502 300.207 21.3971C300.402 21.0355 300.717 20.7928 301.151 20.6687C301.446 20.5842 301.727 20.5714 301.993 20.6305C302.259 20.6896 302.489 20.8121 302.685 20.998C302.885 21.1754 303.024 21.4022 303.103 21.6782C303.289 22.3289 303.111 22.874 302.568 23.3136C302.762 23.4215 303.035 23.5036 303.385 23.5599C303.742 23.6143 304.139 23.6358 304.577 23.6245C305.021 23.6112 305.459 23.5642 305.891 23.4834L304.394 18.2483L303.256 18.0725C302.28 17.9177 301.472 17.7151 300.832 17.4645C300.189 17.2073 299.683 16.8792 299.313 16.4803C298.941 16.0747 298.671 15.5761 298.502 14.9846C298.325 14.3668 298.313 13.7517 298.465 13.1395C298.621 12.5188 298.934 11.946 299.402 11.421C299.727 11.065 300.084 10.7603 300.474 10.5067C300.864 10.253 301.36 10.0008 301.964 9.75001L301.451 7.9557ZM302.271 10.8246C300.907 11.4493 300.369 12.2645 300.656 13.2701C300.807 13.7959 301.114 14.2127 301.579 14.5206C302.049 14.8201 302.693 15.034 303.512 15.1625L302.271 10.8246ZM307.182 23.1141C307.918 22.8041 308.412 22.4673 308.664 22.1039C308.922 21.7386 308.98 21.3062 308.837 20.8067C308.709 20.3597 308.529 19.9917 308.297 19.7025C308.07 19.4049 307.758 19.1599 307.362 18.9675C306.97 18.7666 306.466 18.5944 305.849 18.4509L307.182 23.1141Z" fill="white"/>
<path d="M18.9149 21.6061L20.1078 22.0684L19.4656 23.7256C20.1186 24.0765 20.6403 24.4148 21.0307 24.7406C21.4272 25.0688 21.7546 25.4401 22.013 25.8544C22.2579 26.2495 22.4041 26.6379 22.4518 27.0194C22.5079 27.3972 22.47 27.7561 22.3383 28.096C22.2042 28.4421 21.9759 28.6888 21.6535 28.8361C21.3334 28.9774 20.9943 28.9786 20.6362 28.8399C20.3751 28.7387 20.1614 28.5965 19.995 28.4133C19.8347 28.2325 19.7279 28.0306 19.6747 27.8075C19.6299 27.5807 19.6499 27.358 19.7346 27.1394C19.9322 26.6295 20.2634 26.3424 20.7282 26.2781C20.5845 25.9641 20.3698 25.6715 20.0839 25.4001C19.8065 25.125 19.4745 24.8916 19.088 24.7L17.3413 29.2073L17.4861 29.3472C18.2097 30.0745 18.7933 30.7126 19.2369 31.2615C19.6866 31.8128 20.0148 32.3171 20.2217 32.7743C20.4309 33.2254 20.5347 33.6601 20.5332 34.0785C20.5317 34.4968 20.4427 34.9336 20.2663 35.3889C20.0145 36.0385 19.6225 36.5638 19.09 36.9649C18.5599 37.3599 17.9235 37.6056 17.181 37.7019C16.726 37.7769 16.2649 37.7867 15.7976 37.7313C15.3303 37.6759 14.7898 37.5572 14.1761 37.3753L13.5304 39.0416L12.3375 38.5794L12.9832 36.913C12.2078 36.5357 11.5731 36.1466 11.0791 35.7457C10.5935 35.3411 10.1908 34.8848 9.871 34.3769C9.61126 33.9481 9.44828 33.5218 9.38204 33.0982C9.3158 32.6745 9.3509 32.2866 9.48734 31.9346C9.6426 31.5339 9.89408 31.2543 10.2418 31.0958C10.5979 30.9336 10.9763 30.9301 11.3769 31.0853C11.6501 31.1912 11.8706 31.343 12.0384 31.5406C12.2061 31.7383 12.3107 31.9639 12.3522 32.2173C12.402 32.4671 12.3775 32.7194 12.2787 32.9744C12.0458 33.5754 11.597 33.8867 10.9323 33.9084C11.0178 34.1021 11.1774 34.321 11.4109 34.5652C11.6506 34.8116 11.9397 35.0563 12.2785 35.2993C12.6233 35.5447 12.9829 35.7608 13.3573 35.9478L15.231 31.1126L14.468 30.3247C13.8163 29.6462 13.3194 29.0277 12.9772 28.4693C12.6374 27.9047 12.4418 27.3645 12.3903 26.8489C12.3411 26.3271 12.4224 25.793 12.6341 25.2467C12.8552 24.676 13.1995 24.202 13.6669 23.8246C14.1428 23.4434 14.7095 23.1882 15.367 23.059C15.8183 22.9756 16.2647 22.9496 16.7064 22.9811C17.148 23.0126 17.6701 23.1067 18.2727 23.2634L18.9149 21.6061ZM17.8881 24.2559C16.4931 23.9458 15.6157 24.2551 15.2558 25.1839C15.0676 25.6695 15.0614 26.1629 15.2373 26.6639C15.4216 27.1613 15.7877 27.6941 16.3355 28.2625L17.8881 24.2559ZM14.5501 36.4101C15.2873 36.5979 15.8558 36.6263 16.2558 36.495C16.6618 36.3661 16.9542 36.0709 17.133 35.6096C17.293 35.1968 17.3681 34.8139 17.3582 34.461C17.3568 34.1043 17.2609 33.739 17.0707 33.3651C16.8889 32.9874 16.6051 32.5667 16.2192 32.103L14.5501 36.4101Z" fill="white"/>
<path d="M102.094 55.688L96.694 54.338C93.85 53.618 91.888 52.556 90.808 51.152C89.764 49.712 89.242 47.714 89.242 45.158C89.242 41.774 89.962 39.164 91.402 37.328C92.878 35.492 95.164 34.34 98.26 33.872V29.336H103.606V33.602C105.082 33.638 106.414 33.746 107.602 33.926C108.79 34.07 109.834 34.286 110.734 34.574V43.484C108.466 43.088 106.756 42.836 105.604 42.728C104.452 42.62 103.264 42.566 102.04 42.566C100.924 42.566 100.114 42.728 99.61 43.052C99.142 43.376 98.908 43.916 98.908 44.672C98.908 45.068 98.998 45.356 99.178 45.536C99.358 45.716 99.718 45.878 100.258 46.022L105.442 47.372C107.386 47.876 108.772 48.344 109.6 48.776C110.428 49.208 111.112 49.73 111.652 50.342C112.228 51.062 112.642 51.98 112.894 53.096C113.182 54.176 113.326 55.508 113.326 57.092C113.326 60.62 112.534 63.284 110.95 65.084C109.366 66.848 106.918 67.928 103.606 68.324V72.806H98.26V68.486C96.388 68.414 94.642 68.252 93.022 68C91.438 67.784 90.232 67.514 89.404 67.19V57.794C90.7 58.226 92.338 58.586 94.318 58.874C96.334 59.162 98.332 59.306 100.312 59.306C101.536 59.306 102.382 59.162 102.85 58.874C103.354 58.586 103.606 58.064 103.606 57.308C103.606 56.84 103.516 56.498 103.336 56.282C103.192 56.066 102.778 55.868 102.094 55.688ZM140.076 57.47C140.076 61.07 139.068 63.824 137.052 65.732C135.036 67.64 132.192 68.594 128.52 68.594C126.108 68.594 123.93 68.486 121.986 68.27C120.078 68.054 118.638 67.766 117.666 67.406V58.766C118.962 58.982 120.276 59.144 121.608 59.252C122.976 59.36 124.524 59.414 126.252 59.414C127.62 59.414 128.592 59.252 129.168 58.928C129.744 58.568 130.032 57.974 130.032 57.146C130.032 56.21 129.744 55.58 129.168 55.256C128.592 54.896 127.53 54.716 125.982 54.716C124.002 54.752 122.526 54.806 121.554 54.878C120.618 54.95 119.736 55.058 118.908 55.202V34.142H137.916V43.214H128.952V47.264C129.384 47.228 129.87 47.192 130.41 47.156C130.986 47.12 131.508 47.102 131.976 47.102C134.82 47.102 136.872 47.948 138.132 49.64C139.428 51.296 140.076 53.906 140.076 57.47ZM153.79 59.252L152.062 69.458C151.882 70.43 151.432 71.204 150.712 71.78C150.028 72.356 149.164 72.644 148.12 72.644H144.61V59.252H153.79ZM185.819 51.044C185.819 57.488 184.811 62.024 182.795 64.652C180.779 67.28 177.125 68.594 171.833 68.594C168.593 68.594 166.055 68.234 164.219 67.514C162.419 66.794 161.033 65.624 160.061 64.004C159.269 62.708 158.693 61.034 158.333 58.982C157.973 56.894 157.793 54.248 157.793 51.044C157.793 44.672 158.801 40.172 160.817 37.544C162.869 34.916 166.541 33.602 171.833 33.602C175.073 33.602 177.593 33.962 179.393 34.682C181.229 35.366 182.633 36.518 183.605 38.138C184.361 39.398 184.919 41.054 185.279 43.106C185.639 45.158 185.819 47.804 185.819 51.044ZM175.667 51.044C175.667 47.552 175.433 45.284 174.965 44.24C174.497 43.196 173.453 42.674 171.833 42.674C170.213 42.674 169.169 43.196 168.701 44.24C168.233 45.284 167.999 47.552 167.999 51.044C167.999 54.464 168.233 56.678 168.701 57.686C169.169 58.694 170.213 59.198 171.833 59.198C173.453 59.198 174.497 58.694 174.965 57.686C175.433 56.678 175.667 54.464 175.667 51.044ZM218.776 51.044C218.776 57.488 217.768 62.024 215.752 64.652C213.736 67.28 210.082 68.594 204.79 68.594C201.55 68.594 199.012 68.234 197.176 67.514C195.376 66.794 193.99 65.624 193.018 64.004C192.226 62.708 191.65 61.034 191.29 58.982C190.93 56.894 190.75 54.248 190.75 51.044C190.75 44.672 191.758 40.172 193.774 37.544C195.826 34.916 199.498 33.602 204.79 33.602C208.03 33.602 210.55 33.962 212.35 34.682C214.186 35.366 215.59 36.518 216.562 38.138C217.318 39.398 217.876 41.054 218.236 43.106C218.596 45.158 218.776 47.804 218.776 51.044ZM208.624 51.044C208.624 47.552 208.39 45.284 207.922 44.24C207.454 43.196 206.41 42.674 204.79 42.674C203.17 42.674 202.126 43.196 201.658 44.24C201.19 45.284 200.956 47.552 200.956 51.044C200.956 54.464 201.19 56.678 201.658 57.686C202.126 58.694 203.17 59.198 204.79 59.198C206.41 59.198 207.454 58.694 207.922 57.686C208.39 56.678 208.624 54.464 208.624 51.044ZM251.733 51.044C251.733 57.488 250.725 62.024 248.709 64.652C246.693 67.28 243.039 68.594 237.747 68.594C234.507 68.594 231.969 68.234 230.133 67.514C228.333 66.794 226.947 65.624 225.975 64.004C225.183 62.708 224.607 61.034 224.247 58.982C223.887 56.894 223.707 54.248 223.707 51.044C223.707 44.672 224.715 40.172 226.731 37.544C228.783 34.916 232.455 33.602 237.747 33.602C240.987 33.602 243.507 33.962 245.307 34.682C247.143 35.366 248.547 36.518 249.519 38.138C250.275 39.398 250.833 41.054 251.193 43.106C251.553 45.158 251.733 47.804 251.733 51.044ZM241.581 51.044C241.581 47.552 241.347 45.284 240.879 44.24C240.411 43.196 239.367 42.674 237.747 42.674C236.127 42.674 235.083 43.196 234.615 44.24C234.147 45.284 233.913 47.552 233.913 51.044C233.913 54.464 234.147 56.678 234.615 57.686C235.083 58.694 236.127 59.198 237.747 59.198C239.367 59.198 240.411 58.694 240.879 57.686C241.347 56.678 241.581 54.464 241.581 51.044Z" fill="white"/>
</g>
<defs>
<linearGradient id="paint0_linear_1038_12413" x1="331.5" y1="90.0001" x2="201" y2="180" gradientUnits="userSpaceOnUse">
<stop offset="0.00124687" stop-color="#06341A"/>
<stop offset="1" stop-color="#0A6C3D"/>
</linearGradient>
<linearGradient id="paint1_linear_1038_12413" x1="118.5" y1="-45.0008" x2="24.5001" y2="79.9992" gradientUnits="userSpaceOnUse">
<stop stop-color="#06341A"/>
<stop offset="1" stop-color="#0A6C3D"/>
</linearGradient>
<linearGradient id="paint2_linear_1038_12413" x1="355.139" y1="-59.2432" x2="-24.343" y2="185.026" gradientUnits="userSpaceOnUse">
<stop stop-color="#031209"/>
<stop offset="1" stop-color="#5BDC90"/>
</linearGradient>
<linearGradient id="paint3_linear_1038_12413" x1="358.736" y1="-52.2764" x2="-20.7458" y2="191.993" gradientUnits="userSpaceOnUse">
<stop stop-color="#031209"/>
<stop offset="1" stop-color="#5BDC90"/>
</linearGradient>
<linearGradient id="paint4_linear_1038_12413" x1="362.333" y1="-45.3096" x2="-17.1486" y2="198.959" gradientUnits="userSpaceOnUse">
<stop stop-color="#031209"/>
<stop offset="1" stop-color="#5BDC90"/>
</linearGradient>
<linearGradient id="paint5_linear_1038_12413" x1="365.93" y1="-38.3428" x2="-13.552" y2="205.926" gradientUnits="userSpaceOnUse">
<stop stop-color="#031209"/>
<stop offset="1" stop-color="#5BDC90"/>
</linearGradient>
<linearGradient id="paint6_linear_1038_12413" x1="369.527" y1="-31.376" x2="-9.95479" y2="212.893" gradientUnits="userSpaceOnUse">
<stop stop-color="#031209"/>
<stop offset="1" stop-color="#5BDC90"/>
</linearGradient>
<linearGradient id="paint7_linear_1038_12413" x1="373.124" y1="-24.4082" x2="-6.35762" y2="219.861" gradientUnits="userSpaceOnUse">
<stop stop-color="#031209"/>
<stop offset="1" stop-color="#5BDC90"/>
</linearGradient>
<linearGradient id="paint8_linear_1038_12413" x1="376.721" y1="-17.4414" x2="-2.76045" y2="226.827" gradientUnits="userSpaceOnUse">
<stop stop-color="#031209"/>
<stop offset="1" stop-color="#5BDC90"/>
</linearGradient>
<linearGradient id="paint9_linear_1038_12413" x1="380.319" y1="-10.4746" x2="0.836715" y2="233.794" gradientUnits="userSpaceOnUse">
<stop stop-color="#031209"/>
<stop offset="1" stop-color="#5BDC90"/>
</linearGradient>
<clipPath id="clip0_1038_12413">
<rect width="343" height="122" rx="12" fill="white"/>
</clipPath>
</defs>
</svg>
