<svg width="30" height="26" viewBox="0 0 30 26" fill="none" xmlns="http://www.w3.org/2000/svg">
<path d="M13.7814 1.44215V14.2972C13.7814 14.7675 13.5535 15.195 13.1689 15.4658L2.90015 22.6629C2.05985 23.2472 0.863487 22.7912 0.678335 21.7793C0.464699 20.5536 0.749547 19.1142 1.60409 17.5608L6.04772 9.5656L10.235 2.02647C10.5626 1.44215 10.9186 0.929089 11.2889 0.487288C12.1435 -0.510329 13.7814 0.130996 13.7814 1.44215Z" fill="#111827"/>
<path d="M26.8862 22.6629L16.6174 15.4658C16.2329 15.195 16.005 14.7675 16.005 14.2972V1.44215C16.005 0.130996 17.6429 -0.510329 18.4974 0.487288C18.8677 0.929089 19.2238 1.44215 19.5513 2.02647L23.7386 9.5656L28.1822 17.5608C29.0368 19.1142 29.3216 20.5536 29.108 21.7793C28.9228 22.7912 27.7265 23.2472 26.8862 22.6629Z" fill="#111827"/>
<path d="M5.21844 23.1801L14.0338 17.3405C14.5068 17.0271 15.2808 17.0271 15.7538 17.3405L24.5691 23.1801C26.9056 24.7326 26.5185 26.0002 23.7091 26.0002H6.06413C3.26903 25.9859 2.88202 24.7183 5.21844 23.1801Z" fill="#111827"/>
</svg>
