<svg width="20" height="19" viewBox="0 0 20 19" fill="none" xmlns="http://www.w3.org/2000/svg">
<path d="M9.99997 12.6665V15.0415" stroke="#111827" stroke-linecap="round"/>
<path d="M12.7708 17.4167H7.22913L7.49769 16.0739C7.57169 15.7039 7.89661 15.4375 8.27398 15.4375H11.726C12.1033 15.4375 12.4282 15.7039 12.5022 16.0739L12.7708 17.4167Z" stroke="#111827" stroke-linecap="round" stroke-linejoin="round"/>
<path d="M15.5416 3.9585L16.2926 4.20883C17.0764 4.47009 17.4683 4.60072 17.6925 4.91173C17.9166 5.22273 17.9166 5.63582 17.9166 6.46202L17.9166 6.51943C17.9166 7.20085 17.9166 7.54156 17.7525 7.82032C17.5885 8.09908 17.2907 8.26455 16.695 8.59548L14.3541 9.896" stroke="#111827"/>
<path d="M4.45826 3.9585L3.70726 4.20883C2.92347 4.47009 2.53157 4.60072 2.30742 4.91173C2.08327 5.22273 2.08328 5.63582 2.08331 6.46202L2.08331 6.51943C2.08333 7.20085 2.08334 7.54156 2.24736 7.82032C2.41138 8.09908 2.70922 8.26455 3.30488 8.59548L5.64576 9.896" stroke="#111827"/>
<path d="M9.32385 4.76799C9.62468 4.22833 9.77509 3.9585 9.99997 3.9585C10.2248 3.9585 10.3753 4.22833 10.6761 4.76798L10.7539 4.9076C10.8394 5.06096 10.8822 5.13763 10.9488 5.18823C11.0154 5.23882 11.0984 5.2576 11.2644 5.29516L11.4156 5.32935C11.9998 5.46153 12.2918 5.52762 12.3613 5.75108C12.4308 5.97455 12.2317 6.2074 11.8334 6.6731L11.7304 6.79359C11.6172 6.92592 11.5607 6.99209 11.5352 7.07395C11.5097 7.15581 11.5183 7.2441 11.5354 7.42067L11.551 7.58142C11.6112 8.20276 11.6413 8.51344 11.4594 8.65155C11.2774 8.78966 11.004 8.66374 10.457 8.4119L10.3155 8.34675C10.1601 8.27518 10.0823 8.2394 9.99997 8.2394C9.91759 8.2394 9.83988 8.27518 9.68445 8.34675L9.54294 8.4119C8.99598 8.66374 8.7225 8.78966 8.54057 8.65155C8.35864 8.51344 8.38874 8.20276 8.44895 7.58142L8.46453 7.42067C8.48164 7.2441 8.49019 7.15581 8.46474 7.07395C8.43928 6.99209 8.3827 6.92592 8.26953 6.79359L8.16649 6.6731C7.76824 6.2074 7.56912 5.97455 7.63861 5.75108C7.7081 5.52762 8.00019 5.46153 8.58436 5.32935L8.73549 5.29516C8.9015 5.2576 8.9845 5.23882 9.05114 5.18823C9.11779 5.13763 9.16053 5.06096 9.24602 4.9076L9.32385 4.76799Z" stroke="#111827"/>
<path d="M14.75 17.4165H5.24997" stroke="#111827" stroke-linecap="round"/>
<path d="M13.9583 1.94447C14.5453 2.05649 14.8933 2.17961 15.194 2.54999C15.5707 3.01382 15.5508 3.51514 15.5109 4.51778C15.3678 8.1223 14.56 12.6668 10.0001 12.6668C5.44014 12.6668 4.63234 8.1223 4.48924 4.51778C4.44943 3.51514 4.42953 3.01382 4.80614 2.54999C5.18275 2.08615 5.63349 2.0101 6.53499 1.858C7.42487 1.70786 8.58812 1.5835 10.0001 1.5835C10.5687 1.5835 11.097 1.60366 11.5833 1.63756" stroke="#111827" stroke-linecap="round"/>
</svg>
