<svg width="105" height="105" viewBox="0 0 105 105" fill="none" xmlns="http://www.w3.org/2000/svg">
<path d="M52.5 70V83.125" stroke="#111827" stroke-width="4" stroke-linecap="round"/>
<path d="M67.8125 96.25H37.1875L38.6716 88.8295C39.0806 86.7845 40.8762 85.3125 42.9616 85.3125H62.0384C64.1238 85.3125 65.9194 86.7845 66.3284 88.8295L67.8125 96.25Z" stroke="#111827" stroke-width="4" stroke-linecap="round" stroke-linejoin="round"/>
<path d="M83.125 21.875L87.2752 23.2584C91.6067 24.7022 93.7725 25.4242 95.0112 27.1429C96.2499 28.8615 96.2499 31.1444 96.2497 35.7102L96.2497 36.0275C96.2496 39.7933 96.2496 41.6762 95.3431 43.2167C94.4367 44.7572 92.7907 45.6716 89.4989 47.5004L76.5625 54.6875" stroke="#111827" stroke-width="4"/>
<path d="M21.8747 21.875L17.7245 23.2584C13.393 24.7022 11.2273 25.4242 9.98854 27.1429C8.74982 28.8615 8.74988 31.1444 8.75 35.7102L8.75001 36.0275C8.75011 39.7933 8.75017 41.6762 9.65662 43.2167C10.5631 44.7572 12.209 45.6716 15.5008 47.5004L28.4372 54.6875" stroke="#111827" stroke-width="4"/>
<path d="M48.7635 26.3485C50.426 23.3662 51.2572 21.875 52.5 21.875C53.7428 21.875 54.574 23.3662 56.2365 26.3485L56.6666 27.1201C57.139 27.9675 57.3752 28.3913 57.7435 28.6709C58.1118 28.9505 58.5705 29.0542 59.4879 29.2618L60.3231 29.4508C63.5514 30.1812 65.1656 30.5464 65.5496 31.7814C65.9337 33.0163 64.8332 34.3032 62.6324 36.8768L62.063 37.5426C61.4376 38.2739 61.1249 38.6396 60.9842 39.092C60.8435 39.5444 60.8908 40.0323 60.9853 41.008L61.0714 41.8964C61.4042 45.3302 61.5705 47.047 60.5651 47.8103C59.5597 48.5735 58.0484 47.8777 55.0257 46.4859L54.2437 46.1258C53.3847 45.7304 52.9552 45.5326 52.5 45.5326C52.0448 45.5326 51.6153 45.7304 50.7563 46.1258L49.9743 46.4859C46.9516 47.8777 45.4403 48.5735 44.4349 47.8103C43.4295 47.047 43.5958 45.3302 43.9286 41.8964L44.0147 41.008C44.1092 40.0323 44.1565 39.5444 44.0158 39.092C43.8751 38.6396 43.5624 38.2739 42.937 37.5426L42.3676 36.8768C40.1668 34.3032 39.0663 33.0163 39.4504 31.7814C39.8344 30.5464 41.4486 30.1812 44.6769 29.4508L45.5121 29.2618C46.4295 29.0542 46.8882 28.9505 47.2565 28.6709C47.6248 28.3913 47.861 27.9675 48.3334 27.1201L48.7635 26.3485Z" stroke="#111827" stroke-width="4"/>
<path d="M78.75 96.25H26.25" stroke="#111827" stroke-width="4" stroke-linecap="round"/>
<path d="M74.3749 10.7449C77.619 11.3639 79.5421 12.0443 81.204 14.0911C83.2853 16.6544 83.1753 19.4249 82.9553 24.9658C82.1645 44.8855 77.7003 70 52.5006 70C27.3009 70 22.8367 44.8855 22.0459 24.9658C21.8259 19.4249 21.7159 16.6544 23.7972 14.0911C25.8784 11.5278 28.3694 11.1076 33.3513 10.267C38.2691 9.43726 44.6976 8.75 52.5006 8.75C55.6429 8.75 58.5623 8.86145 61.2499 9.04878" stroke="#111827" stroke-width="4" stroke-linecap="round"/>
</svg>
