<svg width="20" height="19" viewBox="0 0 20 19" fill="none" xmlns="http://www.w3.org/2000/svg">
<path d="M2.47929 11.1396V9.1129C2.47929 7.47415 3.81721 6.13623 5.45596 6.13623H14.5443C16.183 6.13623 17.521 7.47415 17.521 9.1129V10.2529H15.9218C15.4785 10.2529 15.0747 10.4271 14.7818 10.7279C14.4493 11.0525 14.2593 11.5196 14.3068 12.0183C14.378 12.8733 15.1618 13.4987 16.0168 13.4987H17.521V14.4408C17.521 16.0796 16.183 17.4175 14.5443 17.4175H5.45596C3.81721 17.4175 2.47929 16.0796 2.47929 14.4408" stroke="#111827" stroke-linecap="round" stroke-linejoin="round"/>
<path d="M10.2215 1.71763C11.2031 1.34555 12.2561 2.0739 12.2561 3.12682V6.13514" stroke="#111827" stroke-linecap="round" stroke-linejoin="round"/>
<path d="M2.47929 9.82492V6.20705C2.47929 5.26496 3.05721 4.42576 3.93596 4.09326L7.07888 2.90576" stroke="#111827" stroke-linecap="round" stroke-linejoin="round"/>
<path d="M18.3599 11.0599V12.6908C18.3599 13.1262 18.0115 13.4824 17.5682 13.4983H16.0165C15.1615 13.4983 14.3778 12.8728 14.3065 12.0178C14.259 11.5191 14.449 11.052 14.7815 10.7274C15.0745 10.4266 15.4782 10.2524 15.9215 10.2524H17.5682C18.0115 10.2683 18.3599 10.6245 18.3599 11.0599Z" stroke="#111827" stroke-linecap="round" stroke-linejoin="round"/>
<path d="M6.04179 9.5H11.5835" stroke="#111827" stroke-linecap="round" stroke-linejoin="round"/>
</svg>
