<svg width="23" height="21" viewBox="0 0 23 21" fill="none" xmlns="http://www.w3.org/2000/svg">
<path d="M18.9444 20V13.6667M15.7778 16.8333H22.1111M11.5556 13.6667H7.33333C5.36602 13.6667 4.38237 13.6667 3.60645 13.9881C2.57188 14.4166 1.74993 15.2386 1.3214 16.2731C1 17.049 1 18.0327 1 20M15.25 1.30691C16.7974 1.93327 17.8889 3.45027 17.8889 5.22222C17.8889 6.99417 16.7974 8.51118 15.25 9.13753M13.1389 5.22222C13.1389 7.55409 11.2485 9.44444 8.91667 9.44444C6.5848 9.44444 4.69444 7.55409 4.69444 5.22222C4.69444 2.89035 6.5848 1 8.91667 1C11.2485 1 13.1389 2.89035 13.1389 5.22222Z" stroke="#111827" stroke-width="1.5" stroke-linecap="round" stroke-linejoin="round"/>
</svg>
