<svg width="25" height="25" viewBox="0 0 25 25" fill="none" xmlns="http://www.w3.org/2000/svg">
<path d="M20.6699 10.5H4.66992V18.5C4.66992 21.5 5.66992 22.5 8.66992 22.5H16.6699C19.6699 22.5 20.6699 21.5 20.6699 18.5V10.5Z" stroke="#111827" stroke-width="1.5" stroke-miterlimit="10" stroke-linecap="round" stroke-linejoin="round"/>
<path d="M22.2 7.5V8.5C22.2 9.6 21.67 10.5 20.2 10.5H5.19995C3.66995 10.5 3.19995 9.6 3.19995 8.5V7.5C3.19995 6.4 3.66995 5.5 5.19995 5.5H20.2C21.67 5.5 22.2 6.4 22.2 7.5Z" stroke="#111827" stroke-width="1.5" stroke-miterlimit="10" stroke-linecap="round" stroke-linejoin="round"/>
<path d="M12.34 5.49994H6.81998C6.47998 5.12994 6.48998 4.55994 6.84998 4.19994L8.26998 2.77994C8.63998 2.40994 9.24998 2.40994 9.61998 2.77994L12.34 5.49994Z" stroke="#111827" stroke-width="1.5" stroke-miterlimit="10" stroke-linecap="round" stroke-linejoin="round"/>
<path d="M18.57 5.49994H13.05L15.77 2.77994C16.14 2.40994 16.75 2.40994 17.12 2.77994L18.54 4.19994C18.9 4.55994 18.91 5.12994 18.57 5.49994Z" stroke="#111827" stroke-width="1.5" stroke-miterlimit="10" stroke-linecap="round" stroke-linejoin="round"/>
<path d="M9.63989 10.5V15.64C9.63989 16.44 10.5199 16.91 11.1899 16.48L12.1299 15.86C12.4699 15.64 12.8999 15.64 13.2299 15.86L14.1199 16.46C14.7799 16.9 15.6699 16.43 15.6699 15.63V10.5H9.63989Z" stroke="#111827" stroke-width="1.5" stroke-miterlimit="10" stroke-linecap="round" stroke-linejoin="round"/>
</svg>
