<svg width="16" height="14" viewBox="0 0 16 14" fill="none" xmlns="http://www.w3.org/2000/svg">
<path d="M12.5815 5.83301H2.93359V10.4997C2.93359 12.2497 3.53659 12.833 5.34558 12.833H10.1695C11.9785 12.833 12.5815 12.2497 12.5815 10.4997V5.83301Z" stroke="#048547" stroke-width="1.5" stroke-miterlimit="10" stroke-linecap="round" stroke-linejoin="round"/>
<path d="M13.5036 4.08366V4.66699C13.5036 5.30866 13.184 5.83366 12.2976 5.83366H3.25262C2.33004 5.83366 2.04663 5.30866 2.04663 4.66699V4.08366C2.04663 3.44199 2.33004 2.91699 3.25262 2.91699H12.2976C13.184 2.91699 13.5036 3.44199 13.5036 4.08366Z" stroke="#048547" stroke-width="1.5" stroke-miterlimit="10" stroke-linecap="round" stroke-linejoin="round"/>
<path d="M7.55872 2.91651H4.23018C4.02516 2.70068 4.03119 2.36818 4.24827 2.15818L5.10453 1.32984C5.32763 1.11401 5.69546 1.11401 5.91857 1.32984L7.55872 2.91651Z" stroke="#048547" stroke-width="1.5" stroke-miterlimit="10" stroke-linecap="round" stroke-linejoin="round"/>
<path d="M11.3146 2.91651H7.98608L9.62623 1.32984C9.84934 1.11401 10.2172 1.11401 10.4403 1.32984L11.2965 2.15818C11.5136 2.36818 11.5196 2.70068 11.3146 2.91651Z" stroke="#048547" stroke-width="1.5" stroke-miterlimit="10" stroke-linecap="round" stroke-linejoin="round"/>
<path d="M5.92969 5.83301V8.83134C5.92969 9.29801 6.46032 9.57217 6.86433 9.32134L7.43115 8.95967C7.63617 8.83134 7.89546 8.83134 8.09444 8.95967L8.63111 9.30967C9.02909 9.56634 9.56576 9.29217 9.56576 8.82551V5.83301H5.92969Z" stroke="#048547" stroke-width="1.5" stroke-miterlimit="10" stroke-linecap="round" stroke-linejoin="round"/>
</svg>
