<svg width="85" height="22" viewBox="0 0 85 22" fill="none" xmlns="http://www.w3.org/2000/svg">
<path d="M0 4.30105L0.944444 4.06798C1.88889 3.8349 3.77778 3.36876 5.66667 3.025C7.55556 2.68125 9.44444 2.4599 11.3333 3.79233C13.2222 5.12476 15.1111 8.01097 17 9.02067C18.8889 10.0304 20.7778 9.16355 22.6667 7.87187C24.5556 6.58019 26.4444 4.86365 28.3333 3.64288C30.2222 2.42211 32.1111 1.69712 34 1.36116C35.8889 1.02519 37.7778 1.07825 39.6667 1.09921C41.5556 1.12018 43.4444 1.10904 45.3333 5.04954C47.2222 8.99004 49.1111 16.8822 51 17.228C52.8889 17.5739 54.7778 10.3735 56.6667 10.5127C58.5556 10.6519 60.4444 18.1309 62.3333 20.0473C64.2222 21.9638 66.1111 18.3177 68 18.0956C69.8889 17.8734 71.7778 21.0752 73.6667 20.9102C75.5556 20.7452 77.4444 17.2134 79.3333 16.263C81.2222 15.3127 83.1111 16.9439 84.0556 17.7594L85 18.575" stroke="#F7931A" stroke-width="0.708333"/>
</svg>
