<svg width="19" height="19" viewBox="0 0 19 19" fill="none" xmlns="http://www.w3.org/2000/svg">
<path d="M6.58667 12.0891L11.7642 6.91162" stroke="#111827" stroke-width="1.5" stroke-linecap="round" stroke-linejoin="round"/>
<path d="M6.91126 8.2097C7.44905 8.2097 7.88499 7.77375 7.88499 7.23597C7.88499 6.69818 7.44905 6.26221 6.91126 6.26221C6.37347 6.26221 5.9375 6.69818 5.9375 7.23597C5.9375 7.77375 6.37347 8.2097 6.91126 8.2097Z" stroke="#111827" stroke-width="1.5" stroke-linecap="round" stroke-linejoin="round"/>
<path d="M12.0887 12.738C12.6265 12.738 13.0625 12.302 13.0625 11.7643C13.0625 11.2265 12.6265 10.7905 12.0887 10.7905C11.551 10.7905 11.115 11.2265 11.115 11.7643C11.115 12.302 11.551 12.738 12.0887 12.738Z" stroke="#111827" stroke-width="1.5" stroke-linecap="round" stroke-linejoin="round"/>
<path d="M3.16666 4.75016C2.17708 6.07225 1.58333 7.71891 1.58333 9.50016C1.58333 13.8702 5.12999 17.4168 9.49999 17.4168C13.87 17.4168 17.4167 13.8702 17.4167 9.50016C17.4167 5.13016 13.87 1.5835 9.49999 1.5835C8.36791 1.5835 7.28333 1.821 6.30958 2.25642" stroke="#111827" stroke-width="1.5" stroke-linecap="round" stroke-linejoin="round"/>
</svg>
