<svg width="85" height="22" viewBox="0 0 85 22" fill="none" xmlns="http://www.w3.org/2000/svg">
<path d="M0 20.9163L0.940526 18.9865C1.88105 17.0567 4.11481 10.8837 5.99586 10.2083C7.87691 9.53284 9.75796 9.30118 11.639 10.2083C13.5201 11.1153 15.4011 15.2482 17.2822 12.5975C19.1632 9.94685 20.6916 9.95492 22.5726 9.37919C24.4537 8.80345 26.6874 10.3844 28.5684 10.929C30.4495 11.4736 32.3306 9.10764 34.2116 9.37919C36.0927 9.65074 38.6791 9.53956 40.5602 10.2083C42.4412 10.877 44.3223 12.0676 46.2034 9.37919C48.0844 6.69077 49.2601 5.90584 51.1411 6.25227C53.0222 6.5987 54.9032 10.183 56.7843 12.0568C58.6653 13.9307 60.5464 13.1804 62.4274 10.929C64.3085 8.67759 66.1895 3.07652 68.0706 2.34177C69.9516 1.60702 71.8327 3.89003 73.7138 4.92597C75.5948 5.96191 77.4759 5.75076 79.3569 4.90242C81.238 4.05408 83.119 2.56854 84.0595 1.82578L85 1.08301" stroke="#2F66F6" stroke-width="0.708333"/>
</svg>
