<svg width="93" height="83" viewBox="0 0 93 83" fill="none" xmlns="http://www.w3.org/2000/svg">
<path d="M90.25 80.875V72.125C90.25 63.9707 84.6729 57.119 77.125 55.1763M61.8125 3.39707C68.2259 5.99314 72.75 12.2807 72.75 19.625C72.75 26.9693 68.2259 33.2569 61.8125 35.8529M68.375 80.875C68.375 72.721 68.375 68.644 67.0429 65.428C65.2667 61.14 61.86 57.7333 57.572 55.9571C54.356 54.625 50.279 54.625 42.125 54.625H29C20.846 54.625 16.769 54.625 13.553 55.9571C9.26505 57.7333 5.85825 61.14 4.08211 65.428C2.75 68.644 2.75 72.721 2.75 80.875M53.0625 19.625C53.0625 29.29 45.2275 37.125 35.5625 37.125C25.8975 37.125 18.0625 29.29 18.0625 19.625C18.0625 9.96002 25.8975 2.125 35.5625 2.125C45.2275 2.125 53.0625 9.96002 53.0625 19.625Z" stroke="#111827" stroke-width="4" stroke-linecap="round" stroke-linejoin="round"/>
</svg>
