<svg width="11" height="11" viewBox="0 0 11 11" fill="none" xmlns="http://www.w3.org/2000/svg">
<path d="M7.60002 7.41894C8.16267 7.04047 8.67185 6.60109 8.99481 6.1126C9.84849 4.8214 10.2065 3.52354 10.3033 2.3712C10.3127 2.25965 10.3207 2.15665 10.3275 2.06159C10.3746 1.40666 9.92421 0.956314 9.26929 1.00337C9.17423 1.0102 9.07123 1.01821 8.95968 1.02758C7.80733 1.12434 6.50947 1.48239 5.21827 2.33606C4.72979 2.65903 4.2904 3.16821 3.91193 3.73086M7.60002 7.41894C7.61976 7.86444 7.78906 8.54823 6.84613 9.76206C6.57481 10.1113 6.03953 9.93548 5.84993 9.53591C5.60887 9.02788 5.30215 8.86519 5.05968 8.70877M7.60002 7.41894C6.71266 8.01583 5.6923 8.46121 5.05968 8.70877M5.05968 8.70877C4.94841 8.75231 4.84914 8.78973 4.7647 8.82078C4.57355 8.89106 4.36108 8.84019 4.21707 8.69618L2.6347 7.1138C2.49069 6.96979 2.43981 6.75733 2.5101 6.56618C2.54115 6.48174 2.57857 6.38246 2.62211 6.2712M3.91193 3.73086C3.46644 3.71112 2.78265 3.54182 1.56882 4.48475C1.21955 4.75606 1.3954 5.29135 1.79497 5.48094C2.303 5.72201 2.46568 6.02873 2.62211 6.2712M3.91193 3.73086C3.31505 4.61822 2.86966 5.63857 2.62211 6.2712M1.50769 10.3186C1.92603 10.2649 2.43946 10.1516 2.8541 9.91527C3.10761 9.77077 3.10283 9.43304 2.8965 9.22671L2.13093 8.46114C1.91416 8.24437 1.55822 8.25238 1.4127 8.52221C1.18969 8.93575 1.06232 9.42274 1.00476 9.82306C0.962194 10.1192 1.21097 10.3567 1.50769 10.3186ZM8.02827 4.81041C8.45133 4.38734 8.45133 3.70142 8.02827 3.27835C7.6052 2.85528 6.91927 2.85528 6.4962 3.27835C6.07313 3.70142 6.07313 4.38734 6.4962 4.81041C6.91927 5.23348 7.6052 5.23348 8.02827 4.81041Z" stroke="#111827" stroke-linecap="round" stroke-linejoin="round"/>
</svg>
