<svg width="19" height="19" viewBox="0 0 19 19" fill="none" xmlns="http://www.w3.org/2000/svg">
<path d="M9.49997 11.875C10.8116 11.875 11.875 10.8117 11.875 9.5C11.875 8.18832 10.8116 7.125 9.49997 7.125C8.18829 7.125 7.12497 8.18832 7.12497 9.5C7.12497 10.8117 8.18829 11.875 9.49997 11.875Z" stroke="#111827" stroke-width="1.5" stroke-miterlimit="10" stroke-linecap="round" stroke-linejoin="round"/>
<path d="M1.5833 10.1965V8.80314C1.5833 7.97981 2.25622 7.29897 3.08747 7.29897C4.52038 7.29897 5.10622 6.28564 4.3858 5.04272C3.97413 4.33022 4.21955 3.40397 4.93997 2.99231L6.30955 2.20856C6.93497 1.83647 7.74247 2.05814 8.11455 2.68356L8.20163 2.83397C8.91413 4.07689 10.0858 4.07689 10.8062 2.83397L10.8933 2.68356C11.2654 2.05814 12.0729 1.83647 12.6983 2.20856L14.0679 2.99231C14.7883 3.40397 15.0337 4.33022 14.6221 5.04272C13.9016 6.28564 14.4875 7.29897 15.9204 7.29897C16.7437 7.29897 17.4246 7.97189 17.4246 8.80314V10.1965C17.4246 11.0198 16.7516 11.7006 15.9204 11.7006C14.4875 11.7006 13.9016 12.714 14.6221 13.9569C15.0337 14.6773 14.7883 15.5956 14.0679 16.0073L12.6983 16.7911C12.0729 17.1631 11.2654 16.9415 10.8933 16.3161L10.8062 16.1656C10.0937 14.9227 8.92205 14.9227 8.20163 16.1656L8.11455 16.3161C7.74247 16.9415 6.93497 17.1631 6.30955 16.7911L4.93997 16.0073C4.21955 15.5956 3.97413 14.6694 4.3858 13.9569C5.10622 12.714 4.52038 11.7006 3.08747 11.7006C2.25622 11.7006 1.5833 11.0198 1.5833 10.1965Z" stroke="#111827" stroke-width="1.5" stroke-miterlimit="10" stroke-linecap="round" stroke-linejoin="round"/>
</svg>
