<svg width="22" height="22" viewBox="0 0 22 22" fill="none" xmlns="http://www.w3.org/2000/svg">
<path d="M8.82684 11.482L8.1612 11.0382L8.82684 11.482ZM4.77881 16.1118C4.53372 16.4794 4.63306 16.9761 5.00069 17.2212C5.36831 17.4663 5.865 17.3669 6.11009 16.9993L4.77881 16.1118ZM17.2212 8.11043C17.4663 7.7428 17.3669 7.24611 16.9993 7.00103C16.6317 6.75594 16.135 6.85528 15.8899 7.22291L17.2212 8.11043ZM13.1732 12.7403L13.8388 13.184L13.1732 12.7403ZM11.2549 12.6208L11.9704 12.2631L11.2549 12.6208ZM10.7451 11.6014L11.4607 11.2436L10.7451 11.6014ZM8.1612 11.0382L4.77881 16.1118L6.11009 16.9993L9.49248 11.9257L8.1612 11.0382ZM15.8899 7.22291L12.5075 12.2965L13.8388 13.184L17.2212 8.11043L15.8899 7.22291ZM11.9704 12.2631L11.4607 11.2436L10.0296 11.9592L10.5393 12.9786L11.9704 12.2631ZM12.5075 12.2965C12.375 12.4953 12.0772 12.4767 11.9704 12.2631L10.5393 12.9786C11.1956 14.2911 13.0248 14.405 13.8388 13.184L12.5075 12.2965ZM9.49248 11.9257C9.62498 11.727 9.92277 11.7455 10.0296 11.9592L11.4607 11.2436C10.8044 9.93115 8.97516 9.81727 8.1612 11.0382L9.49248 11.9257ZM5.44444 1.8H16.5556V0.2H5.44444V1.8ZM20.2 5.44444V16.5556H21.8V5.44444H20.2ZM16.5556 20.2H5.44444V21.8H16.5556V20.2ZM1.8 16.5556V5.44444H0.2V16.5556H1.8ZM5.44444 20.2C4.37426 20.2 3.65211 20.1983 3.11266 20.1258C2.59623 20.0563 2.36858 19.9355 2.21656 19.7834L1.08519 20.9148C1.58404 21.4137 2.20561 21.6182 2.89946 21.7115C3.5703 21.8017 4.41949 21.8 5.44444 21.8V20.2ZM0.2 16.5556C0.2 17.5805 0.198301 18.4297 0.288493 19.1005C0.381779 19.7944 0.586336 20.416 1.08519 20.9148L2.21656 19.7834C2.06454 19.6314 1.94366 19.4038 1.87423 18.8873C1.8017 18.3479 1.8 17.6257 1.8 16.5556H0.2ZM20.2 16.5556C20.2 17.6257 20.1983 18.3479 20.1258 18.8873C20.0563 19.4038 19.9355 19.6314 19.7834 19.7834L20.9148 20.9148C21.4137 20.416 21.6182 19.7944 21.7115 19.1005C21.8017 18.4297 21.8 17.5805 21.8 16.5556H20.2ZM16.5556 21.8C17.5805 21.8 18.4297 21.8017 19.1005 21.7115C19.7944 21.6182 20.416 21.4137 20.9148 20.9148L19.7834 19.7834C19.6314 19.9355 19.4038 20.0563 18.8873 20.1258C18.3479 20.1983 17.6257 20.2 16.5556 20.2V21.8ZM16.5556 1.8C17.6257 1.8 18.3479 1.8017 18.8873 1.87423C19.4038 1.94366 19.6314 2.06454 19.7834 2.21656L20.9148 1.08519C20.416 0.586336 19.7944 0.381779 19.1005 0.288493C18.4297 0.198301 17.5805 0.2 16.5556 0.2V1.8ZM21.8 5.44444C21.8 4.41949 21.8017 3.5703 21.7115 2.89946C21.6182 2.20561 21.4137 1.58404 20.9148 1.08519L19.7834 2.21656C19.9355 2.36858 20.0563 2.59623 20.1258 3.11266C20.1983 3.65211 20.2 4.37426 20.2 5.44444H21.8ZM5.44444 0.2C4.41949 0.2 3.5703 0.198301 2.89946 0.288493C2.20561 0.381779 1.58404 0.586336 1.08519 1.08519L2.21656 2.21656C2.36858 2.06454 2.59623 1.94366 3.11266 1.87423C3.65211 1.8017 4.37426 1.8 5.44444 1.8V0.2ZM1.8 5.44444C1.8 4.37426 1.8017 3.65211 1.87423 3.11266C1.94366 2.59623 2.06454 2.36858 2.21656 2.21656L1.08519 1.08519C0.586336 1.58404 0.381779 2.20561 0.288493 2.89946C0.198301 3.5703 0.2 4.41949 0.2 5.44444H1.8Z" fill="#696F8C"/>
</svg>
