<svg width="20" height="20" viewBox="0 0 20 20" fill="none" xmlns="http://www.w3.org/2000/svg">
<path d="M18.6087 13.0387C19.0622 13.1987 19.5635 12.9615 19.6835 12.4958C20.0072 11.2402 20.0842 9.93079 19.9072 8.64069C19.6906 7.06237 19.1001 5.55863 18.1848 4.25469C17.2695 2.95076 16.056 1.88438 14.6452 1.14435C13.2344 0.404329 11.6672 0.0120804 10.0741 0.000274586C8.48104 -0.0115312 6.90821 0.357447 5.4866 1.07648C4.06498 1.79552 2.83573 2.8438 1.90122 4.13402C0.966703 5.42424 0.353972 6.91907 0.114051 8.49401C-0.0820567 9.78134 -0.0244433 11.0917 0.280531 12.352C0.393642 12.8194 0.891415 13.0641 1.34722 12.9107C1.80303 12.7574 2.0434 12.2641 1.93889 11.7947C1.71731 10.7995 1.68141 9.76922 1.83571 8.75628C2.03385 7.45562 2.53987 6.22112 3.31164 5.15559C4.08341 4.09007 5.09858 3.22435 6.27262 2.63053C7.44665 2.03672 8.74557 1.732 10.0612 1.74175C11.3768 1.7515 12.6711 2.07544 13.8362 2.68659C15.0013 3.29773 16.0035 4.1784 16.7594 5.25525C17.5153 6.3321 18.003 7.57396 18.1818 8.87742C18.3211 9.89253 18.2699 10.9221 18.0336 11.914C17.9222 12.3818 18.1552 12.8786 18.6087 13.0387Z" fill="#111827"/>
<path d="M14.723 5.98552L15.4199 5.86584L10.6324 12.6386C10.4073 12.957 9.96674 13.0326 9.64833 12.8076C9.30322 12.5636 9.24829 12.0732 9.5309 11.7589L14.723 5.98552Z" fill="#111827"/>
</svg>
