<svg width="45" height="45" viewBox="0 0 45 45" fill="none" xmlns="http://www.w3.org/2000/svg">
<path d="M20.2936 4.29862C21.2158 2.50185 23.7842 2.50185 24.7064 4.29862C25.4101 5.66957 27.1805 6.07366 28.4094 5.14379C30.0199 3.92511 32.3339 5.03947 32.3852 7.05845C32.4244 8.59896 33.8441 9.73119 35.3547 9.42658C37.3345 9.02736 38.9358 11.0354 38.1061 12.8767C37.473 14.2816 38.2609 15.9177 39.7541 16.2987C41.711 16.798 42.2825 19.302 40.736 20.6009C39.556 21.592 39.556 23.408 40.736 24.3991C42.2825 25.698 41.711 28.202 39.7541 28.7013C38.2609 29.0823 37.473 30.7184 38.1061 32.1233C38.9358 33.9646 37.3345 35.9726 35.3547 35.5734C33.8441 35.2688 32.4244 36.401 32.3852 37.9415C32.3339 39.9605 30.0199 41.0749 28.4094 39.8562C27.1805 38.9263 25.4101 39.3304 24.7064 40.7014C23.7842 42.4981 21.2158 42.4981 20.2936 40.7014C19.5899 39.3304 17.8195 38.9263 16.5906 39.8562C14.9801 41.0749 12.6661 39.9605 12.6148 37.9415C12.5756 36.401 11.1559 35.2688 9.64527 35.5734C7.66548 35.9726 6.06416 33.9646 6.89391 32.1233C7.52702 30.7184 6.73911 29.0823 5.24594 28.7013C3.289 28.202 2.71749 25.698 4.26399 24.3991C5.44399 23.408 5.44399 21.592 4.26399 20.6009C2.71749 19.302 3.289 16.798 5.24594 16.2987C6.73911 15.9177 7.52702 14.2816 6.89391 12.8767C6.06416 11.0354 7.66548 9.02736 9.64527 9.42658C11.1559 9.73119 12.5756 8.59896 12.6148 7.05845C12.6661 5.03947 14.9801 3.92511 16.5906 5.14379C17.8195 6.07366 19.5899 5.66957 20.2936 4.29862Z" fill="#111827"/>
<path d="M21.5979 10.7133V21.1456C21.5979 21.5272 21.4129 21.8742 21.1009 22.0939L12.7674 27.9346C12.0855 28.4088 11.1146 28.0387 10.9644 27.2175C10.791 26.2229 11.0221 25.0548 11.7156 23.7941L15.3218 17.3058L18.7199 11.1875C18.9857 10.7133 19.2747 10.297 19.5752 9.93842C20.2687 9.12882 21.5979 9.64928 21.5979 10.7133Z" fill="white"/>
<path d="M32.2318 27.9346L23.8984 22.0939C23.5863 21.8742 23.4014 21.5272 23.4014 21.1456V10.7133C23.4014 9.64928 24.7306 9.12882 25.424 9.93842C25.7246 10.297 26.0135 10.7133 26.2793 11.1875L29.6774 17.3058L33.2836 23.7941C33.9771 25.0548 34.2082 26.2229 34.0349 27.2175C33.8846 28.0387 32.9137 28.4088 32.2318 27.9346Z" fill="white"/>
<path d="M14.6472 28.3565L21.8011 23.6175C22.185 23.3632 22.8131 23.3632 23.197 23.6175L30.3509 28.3565C32.247 29.6164 31.9329 30.6451 29.653 30.6451H15.3335C13.0652 30.6335 12.7511 29.6048 14.6472 28.3565Z" fill="white"/>
</svg>
