<svg width="21" height="21" viewBox="0 0 21 21" fill="none" xmlns="http://www.w3.org/2000/svg">
<path d="M13.4553 8.82337L13.9088 8.22599L13.4553 8.82337C13.7976 9.08322 14.2134 9.17627 14.6362 9.2709C14.6681 9.27803 14.6999 9.28516 14.7318 9.29237L15.2051 9.39946C16.1453 9.61218 16.7629 9.75413 17.1809 9.91885C17.5746 10.074 17.6063 10.1788 17.6155 10.2091C17.6157 10.2099 17.6159 10.2107 17.6161 10.2113L17.6162 10.2115C17.6272 10.247 17.6632 10.3625 17.4203 10.7483C17.172 11.1427 16.7489 11.6405 16.1092 12.3886L15.7865 12.7659C15.7653 12.7906 15.7442 12.8153 15.7231 12.8398C15.4319 13.179 15.156 13.5004 15.029 13.9086L15.7452 14.1313L15.029 13.9086C14.903 14.3138 14.9449 14.7375 14.9896 15.1905C14.9929 15.2233 14.9961 15.2563 14.9994 15.2894L15.0481 15.7928C15.1447 16.7898 15.2074 17.4556 15.1863 17.9302C15.1657 18.3921 15.0715 18.4616 15.0553 18.4735C15.0549 18.4738 15.0546 18.4741 15.0543 18.4743C15.0542 18.4743 15.0542 18.4743 15.0542 18.4744C15.052 18.477 14.9881 18.5522 14.5735 18.4334C14.1427 18.3099 13.5627 18.0453 12.6824 17.6399L12.2393 17.4359L11.9256 18.1171L12.2393 17.4359C12.2089 17.4219 12.1785 17.4078 12.1482 17.3938C11.7554 17.2117 11.3653 17.031 10.9375 17.031C10.5097 17.031 10.1196 17.2117 9.72683 17.3938C9.69649 17.4078 9.66614 17.4219 9.63575 17.4359L9.94943 18.1171L9.63575 17.4359L9.19261 17.6399C8.31226 18.0453 7.73231 18.3099 7.30152 18.4334C6.88686 18.5522 6.82302 18.477 6.82081 18.4744L6.82075 18.4743C6.82045 18.4741 6.8201 18.4738 6.8197 18.4735C6.80348 18.4616 6.70929 18.3921 6.68871 17.9302C6.66758 17.4556 6.73026 16.7898 6.82687 15.7928L6.87565 15.2894C6.87886 15.2563 6.88212 15.2233 6.88536 15.1905C6.93011 14.7375 6.97198 14.3138 6.84597 13.9086C6.71902 13.5004 6.44311 13.179 6.1519 12.8398C6.13083 12.8153 6.10967 12.7906 6.08848 12.7659L5.76582 12.3886C5.12614 11.6405 4.70298 11.1427 4.45468 10.7483C4.21185 10.3625 4.24779 10.247 4.25883 10.2115L4.25888 10.2113C4.25909 10.2107 4.25931 10.2099 4.25955 10.2091C4.26871 10.1788 4.3004 10.074 4.69413 9.91885C5.11211 9.75413 5.72974 9.61218 6.66992 9.39946L7.1432 9.29237L6.97769 8.56086L7.1432 9.29237C7.17508 9.28516 7.20694 9.27803 7.23877 9.2709C7.66159 9.17627 8.07735 9.08322 8.41966 8.82337C8.75754 8.56687 8.96576 8.19144 9.18234 7.80093C9.19867 7.77148 9.21505 7.74195 9.23153 7.71238L9.47526 7.27516C9.95851 6.40825 10.2812 5.83332 10.5635 5.46474C10.7001 5.28632 10.7966 5.19862 10.859 5.15684C10.9067 5.12492 10.9255 5.12497 10.9366 5.125L10.9375 5.125L10.9384 5.125C10.9495 5.12497 10.9683 5.12492 11.016 5.15684C11.0784 5.19862 11.1749 5.28631 11.3115 5.46474C11.5938 5.83332 11.9165 6.40824 12.3997 7.27515L12.6435 7.71238C12.66 7.74195 12.6763 7.77148 12.6927 7.80093C12.9092 8.19144 13.1175 8.56687 13.4553 8.82337Z" stroke="#111827" stroke-width="1.5"/>
<path d="M4.36616 1.75C4.36616 1.75 4.6181 3.0255 5.17048 3.57416C5.72286 4.12281 7.00003 4.36613 7.00003 4.36613C7.00003 4.36613 5.72453 4.61807 5.17587 5.17045C4.62722 5.72283 4.3839 7 4.3839 7C4.3839 7 4.13196 5.7245 3.57958 5.17584C3.0272 4.62719 1.75003 4.38387 1.75003 4.38387C1.75003 4.38387 3.02553 4.13193 3.57419 3.57955C4.12284 3.02717 4.36616 1.75 4.36616 1.75Z" stroke="#111827" stroke-width="0.5" stroke-linejoin="round"/>
<path d="M2.75755 13.2632C2.75755 13.2632 2.91667 14.0688 3.26554 14.4153C3.61441 14.7618 4.42104 14.9155 4.42104 14.9155C4.42104 14.9155 3.61547 15.0746 3.26895 15.4235C2.92243 15.7723 2.76875 16.579 2.76875 16.579C2.76875 16.579 2.60963 15.7734 2.26076 15.4269C1.91189 15.0804 1.10526 14.9267 1.10526 14.9267C1.10526 14.9267 1.91083 14.7676 2.25735 14.4187C2.60387 14.0698 2.75755 13.2632 2.75755 13.2632Z" stroke="#111827" stroke-width="0.5" stroke-linejoin="round"/>
<path d="M15.75 4.375H17.5M16.625 5.25L16.625 3.5" stroke="#111827" stroke-linecap="round"/>
</svg>
