<svg width="25" height="25" viewBox="0 0 25 25" fill="none" xmlns="http://www.w3.org/2000/svg">
<path d="M2.625 14.57V12.01C2.625 9.94001 4.315 8.25 6.385 8.25H17.865C19.935 8.25 21.625 9.94001 21.625 12.01V13.45H19.605C19.045 13.45 18.535 13.67 18.165 14.05C17.745 14.46 17.505 15.05 17.565 15.68C17.655 16.76 18.645 17.55 19.725 17.55H21.625V18.74C21.625 20.81 19.935 22.5 17.865 22.5H6.385C4.315 22.5 2.625 20.81 2.625 18.74" stroke="#111827" stroke-width="1.5" stroke-linecap="round" stroke-linejoin="round"/>
<path d="M12.4048 2.66982C13.6448 2.19982 14.9748 3.11985 14.9748 4.44985V8.24983" stroke="#111827" stroke-width="1.5" stroke-linecap="round" stroke-linejoin="round"/>
<path d="M2.625 12.9099V8.33997C2.625 7.14997 3.355 6.08992 4.465 5.66992L8.435 4.16992" stroke="#111827" stroke-width="1.5" stroke-linecap="round" stroke-linejoin="round"/>
<path d="M22.6848 14.4702V16.5302C22.6848 17.0802 22.2448 17.5302 21.6848 17.5502H19.7248C18.6448 17.5502 17.6548 16.7602 17.5648 15.6802C17.5048 15.0502 17.7448 14.4602 18.1648 14.0502C18.5348 13.6702 19.0448 13.4502 19.6048 13.4502H21.6848C22.2448 13.4702 22.6848 13.9202 22.6848 14.4702Z" stroke="#111827" stroke-width="1.5" stroke-linecap="round" stroke-linejoin="round"/>
<path d="M7.125 12.5H14.125" stroke="#111827" stroke-width="1.5" stroke-linecap="round" stroke-linejoin="round"/>
</svg>
