<svg width="23" height="17" viewBox="0 0 23 17" fill="none" xmlns="http://www.w3.org/2000/svg">
<path d="M21.9604 3.9001C21.9604 3.9001 21.7438 2.31436 21.0766 1.61807C20.2318 0.70166 19.2874 0.697168 18.8541 0.643262C15.7522 0.409668 11.095 0.409668 11.095 0.409668H11.0863C11.0863 0.409668 6.42913 0.409668 3.3272 0.643262C2.89397 0.697168 1.94953 0.70166 1.10474 1.61807C0.437562 2.31436 0.225279 3.9001 0.225279 3.9001C0.225279 3.9001 0 5.76436 0 7.62412V9.36709C0 11.2269 0.220947 13.0911 0.220947 13.0911C0.220947 13.0911 0.437562 14.6769 1.1004 15.3731C1.9452 16.2896 3.05427 16.2581 3.54815 16.3569C5.32439 16.5321 11.0907 16.586 11.0907 16.586C11.0907 16.586 15.7522 16.5771 18.8541 16.3479C19.2874 16.294 20.2318 16.2896 21.0766 15.3731C21.7438 14.6769 21.9604 13.0911 21.9604 13.0911C21.9604 13.0911 22.1814 11.2313 22.1814 9.36709V7.62412C22.1814 5.76436 21.9604 3.9001 21.9604 3.9001ZM8.79889 11.4829V5.01865L14.7905 8.26201L8.79889 11.4829Z" fill="white"/>
</svg>
